<?xml version="1.0" encoding="UTF-8" standalone="no"?>
<!-- Created with Inkscape (http://www.inkscape.org/) -->
<svg xmlns:svg="http://www.w3.org/2000/svg" xmlns="http://www.w3.org/2000/svg" version="1.0" width="360.07935" height="432.87042" id="svg2">
  <defs id="defs4"/>
  <g transform="translate(-333.63, -72.0787)" id="layer1">
    <path d="m 343.01587,495.29573 c -11.296105,-1.44318 -10.544146,-15.57069 -7.26325,-28.8488 0.130135,-0.52664 0.308411,-2.10655 0.396192,-3.51091 0.18233,-2.91732 8.117741,-11.24442 13.284503,-13.94021 l 12.408989,-2.43803 c 9.123833,-2.46475 17.21264,-7.67433 26.238376,-10.33437 3.4745521,-0.66472 9.5627185,-2.64931 13.529259,-4.4102 3.9665402,-1.76086 10.429804,-4.13704 14.362821,-5.28041 10.475675,-0.92892 13.435278,-7.16753 8.102123,-14.87533 -6.104,-10.41606 -4.159153,-15.8633 -11.599317,-23.96756 -3.916853,-5.91876 -4.306412,-12.48052 -2.062077,-34.73362 1.390214,-13.78425 1.592638,-15.06563 3.70202,-23.43496 0.707903,-2.80873 1.341187,-8.55386 1.407286,-12.76696 2.433616,-13.79806 1.348471,-40.17695 13.719366,-43.37425 19.723941,-5.09772 39.831386,-18.63748 56.915087,-24.17646 11.664483,-7.0057 3.305085,-22.67304 -3.681286,-39.03998 l -1.469376,-1.47105 c 2.018245,30.67765 -0.764956,33.17001 -2.530757,30.19401 -0.614219,-1.03518 -2.877907,-1.71064 -2.261767,-11.82014 0.675246,-11.07919 0.408127,-13.50054 -2.429572,-22.02299 -3.727839,-11.19582 -3.384745,-14.43674 -4.584202,-17.87374 l -1.660197,-4.75723 c -1.579043,-3.27152 0.445168,-6.7341 3.935182,-6.73146 1.821014,0.00138 2.023984,-1.7531 1.641831,-14.19176 -0.346453,-11.27677 0.02817,-15.40886 1.823056,-20.10872 3.0756751,-8.2095413 9.1164105,-10.915022 14.834416,-14.07271 1.655116,-0.62928 4.275342,-3.74332 5.919143,-7.03471 l 4.472002,-10.6223 c 2.6493276,-11.179117 7.1106023,-24.67566 9.87608,-36.107019 0.98382611,-4.2757033 1.749783,2.0180081 2.3949,3.528236 1.36841,2.484558 6.49418,21.165157 9.01578,32.857587 2.13215,9.88659 5.58612,15.60097 10.72847,17.74959 6.51617,2.72262 13.15456,9.33338 15.47574,15.41128 1.75412,4.59307 1.98478,8.12424 1.29034,19.75237 -0.46509,7.78769 -0.38359,14.08101 0.18113,13.98517 3.96126,-0.67232 4.49284,0.23197 3.60737,6.1367 -0.49557,3.30473 -2.36909,10.91703 -4.16338,16.91622 -2.49315,8.33582 -3.3518,14.36381 -3.64182,25.56612 -0.20872,8.06217 -0.89951,14.83182 -1.5351,15.04369 -2.40873,0.80291 -4.52038,-3.91597 -4.89199,-10.93209 -0.21206,-4.00391 -0.42913,-7.56709 -0.48238,-7.91819 -0.05323,-0.35108 -0.98274,0.99663 -2.06559,2.99491 -5.57856,10.29473 -2.76069,22.393995 4.62256,26.36909 25.154046,9.6381202 38.25466,5.9934061 50.611198,16.926209 4.5650161,4.008148 8.3995748,10.439229 9.8672663,16.548758 1.1304822,4.7058984 5.1970422,35.941288 8.5234622,65.468948 3.0722,27.2711 2.73487,34.37894 -2.17633,45.85801 -1.82677,4.26976 -3.26434,9.41184 -3.19459,11.42683 3.3156,17.18246 10.20029,21.36874 28.07625,23.80139 5.14717,0.70427 10.43956,1.85905 11.76085,2.56617 1.32128,0.70714 7.89416,2.41569 14.60637,3.79678 24.80219,5.10324 33.79036,13.31192 34.8629,31.83949 0.50086,8.65208 0.18224,10.54998 -2.73908,16.31493 -101.93396,21.89605 -225.11501,25.41278 -347.76024,9.74367 z m 122.9154,-107.59362 c 4.185189,-21.36782 4.043697,-25.28783 -1.38578,-38.392 -2.472958,-5.96855 -4.715435,-11.79021 -4.983287,-12.93702 -0.675648,-2.89287 -5.877017,-12.94344 -6.417991,-12.40145 -0.243137,0.2436 -1.605996,6.47536 -3.028611,13.84835 -1.422594,7.37299 -3.768903,18.71354 -5.214004,25.20121 -1.445112,6.48769 -2.627468,13.22011 -2.627468,14.96096 0,1.7408511 2.211316,6.4866606 4.9140397,10.546259 2.702708,4.0595842 6.8292763,10.467508 9.1701186,14.239815 5.1308445,8.2684442 4.9454309,8.5602578 9.572982,-15.066133 z" id="path8809" style="fill:#000000"/>
  </g>
</svg>