<?xml version="1.0" encoding="UTF-8" standalone="no"?>
<!DOCTYPE svg PUBLIC "-//W3C//DTD SVG 1.1//EN"
 "http://www.w3.org/Graphics/SVG/1.1/DTD/svg11.dtd">
<!-- Generated by graphviz version 2.36.0 (20140111.2315)
 -->
<!-- Pages: 1 -->
<svg width="436pt" height="5144pt"
 viewBox="0.00 0.00 436.00 5144.00" xmlns="http://www.w3.org/2000/svg" xmlns:xlink="http://www.w3.org/1999/xlink">
<g id="graph0" class="graph" transform="scale(1 1) rotate(0) translate(4 5140)">
<polygon fill="white" stroke="none" points="-4,4 -4,-5140 432,-5140 432,4 -4,4"/>
<text text-anchor="middle" x="214" y="-5120.8" font-family="Times,serif" font-style="italic" font-size="14.00">bsdconfig(8)</text>
<text text-anchor="middle" x="214" y="-5105.8" font-family="Times,serif" font-style="italic" font-size="14.00">dot(1) output generated by ``bsdconfig dot &#45;c&#39;&#39; on</text>
<text text-anchor="middle" x="214" y="-5090.8" font-family="Times,serif" font-style="italic" font-size="14.00">Thu Sep 11 15:34:53 2014 MSK</text>
<g id="clust9" class="cluster"><title>cluster_bsdconfig_includes</title>
<polygon fill="lightyellow" stroke="black" points="8,-874 8,-1327 204,-1327 204,-874 8,-874"/>
<text text-anchor="middle" x="106" y="-1311.8" font-family="Times,serif" font-style="italic" font-size="14.00">bsdconfig Subroutines</text>
</g>
<g id="clust8" class="cluster"><title>cluster_bsdconfig</title>
<g id="a_clust8"><a xlink:title="bsdconfig(8)">
<polygon fill="lightyellow" stroke="black" points="8,-8 8,-227 204,-227 204,-8 8,-8"/>
<text text-anchor="middle" x="106" y="-211.8" font-family="Times,serif" font-style="italic" font-size="14.00">bsdconfig(8)</text>
</a>
</g>
</g>
<g id="clust10" class="cluster"><title>cluster_media_includes</title>
<polygon fill="thistle" stroke="black" points="224,-745 224,-874 420,-874 420,-745 224,-745"/>
<text text-anchor="middle" x="322" y="-858.8" font-family="Times,serif" font-style="italic" font-size="14.00">media Subroutines</text>
</g>
<g id="clust14" class="cluster"><title>cluster_startup_includes</title>
<polygon fill="thistle" stroke="black" points="8,-2748 8,-2877 204,-2877 204,-2748 8,-2748"/>
<text text-anchor="middle" x="106" y="-2861.8" font-family="Times,serif" font-style="italic" font-size="14.00">startup Subroutines</text>
</g>
<g id="clust17" class="cluster"><title>cluster_020.docsinstall</title>
<g id="a_clust17"><a xlink:title="Install FreeBSD Documentation set">
<polygon fill="aliceblue" stroke="black" points="8,-235 8,-325 204,-325 204,-235 8,-235"/>
<text text-anchor="middle" x="106" y="-309.8" font-family="Times,serif" font-style="italic" font-size="14.00">020.docsinstall</text>
<text text-anchor="middle" x="106" y="-294.8" font-family="Times,serif" font-style="italic" font-size="14.00">&quot;Documentation installation&quot;</text>
</a>
</g>
</g>
<g id="clust18" class="cluster"><title>cluster_030.packages</title>
<g id="a_clust18"><a xlink:title="Install pre&#45;packaged software for FreeBSD">
<polygon fill="aliceblue" stroke="black" points="8,-333 8,-423 204,-423 204,-333 8,-333"/>
<text text-anchor="middle" x="106" y="-407.8" font-family="Times,serif" font-style="italic" font-size="14.00">030.packages</text>
<text text-anchor="middle" x="106" y="-392.8" font-family="Times,serif" font-style="italic" font-size="14.00">&quot;Packages&quot;</text>
</a>
</g>
</g>
<g id="clust19" class="cluster"><title>cluster_040.password</title>
<g id="a_clust19"><a xlink:title="Set the system manager&#39;s password">
<polygon fill="aliceblue" stroke="black" points="8,-3421 8,-3511 204,-3511 204,-3421 8,-3421"/>
<text text-anchor="middle" x="106" y="-3495.8" font-family="Times,serif" font-style="italic" font-size="14.00">040.password</text>
<text text-anchor="middle" x="106" y="-3480.8" font-family="Times,serif" font-style="italic" font-size="14.00">&quot;Root Password&quot;</text>
</a>
</g>
</g>
<g id="clust20" class="cluster"><title>cluster_050.diskmgmt</title>
<g id="a_clust20"><a xlink:title="Manage disk partitions and/or labels">
<polygon fill="aliceblue" stroke="black" points="8,-3519 8,-3609 204,-3609 204,-3519 8,-3519"/>
<text text-anchor="middle" x="106" y="-3593.8" font-family="Times,serif" font-style="italic" font-size="14.00">050.diskmgmt</text>
<text text-anchor="middle" x="106" y="-3578.8" font-family="Times,serif" font-style="italic" font-size="14.00">&quot;Disk Management&quot;</text>
</a>
</g>
</g>
<g id="clust21" class="cluster"><title>cluster_070.usermgmt</title>
<g id="a_clust21"><a xlink:title="Manage system user and/or group information">
<polygon fill="aliceblue" stroke="black" points="8,-431 8,-737 420,-737 420,-431 8,-431"/>
<text text-anchor="middle" x="214" y="-721.8" font-family="Times,serif" font-style="italic" font-size="14.00">070.usermgmt</text>
<text text-anchor="middle" x="214" y="-706.8" font-family="Times,serif" font-style="italic" font-size="14.00">&quot;Login/Group Management&quot;</text>
</a>
</g>
</g>
<g id="clust11" class="cluster"><title>cluster_networking_includes</title>
<polygon fill="thistle" stroke="black" points="8,-1921 8,-2050 204,-2050 204,-1921 8,-1921"/>
<text text-anchor="middle" x="106" y="-2034.8" font-family="Times,serif" font-style="italic" font-size="14.00">networking Subroutines</text>
</g>
<g id="clust12" class="cluster"><title>cluster_packages_includes</title>
<polygon fill="thistle" stroke="black" points="8,-2428 8,-2557 204,-2557 204,-2428 8,-2428"/>
<text text-anchor="middle" x="106" y="-2541.8" font-family="Times,serif" font-style="italic" font-size="14.00">packages Subroutines</text>
</g>
<g id="clust13" class="cluster"><title>cluster_password_includes</title>
<polygon fill="thistle" stroke="black" points="8,-2665 8,-2740 204,-2740 204,-2665 8,-2665"/>
<text text-anchor="middle" x="106" y="-2724.8" font-family="Times,serif" font-style="italic" font-size="14.00">password Subroutines</text>
</g>
<g id="clust15" class="cluster"><title>cluster_timezone_includes</title>
<polygon fill="thistle" stroke="black" points="8,-3093 8,-3168 204,-3168 204,-3093 8,-3093"/>
<text text-anchor="middle" x="106" y="-3152.8" font-family="Times,serif" font-style="italic" font-size="14.00">timezone Subroutines</text>
</g>
<g id="clust16" class="cluster"><title>cluster_usermgmt_includes</title>
<polygon fill="thistle" stroke="black" points="8,-3176 8,-3413 204,-3413 204,-3176 8,-3176"/>
<text text-anchor="middle" x="106" y="-3397.8" font-family="Times,serif" font-style="italic" font-size="14.00">usermgmt Subroutines</text>
</g>
<g id="clust23" class="cluster"><title>cluster_090.timezone</title>
<g id="a_clust23"><a xlink:title="Set up Time Zone">
<polygon fill="aliceblue" stroke="black" points="8,-3617 8,-3707 204,-3707 204,-3617 8,-3617"/>
<text text-anchor="middle" x="106" y="-3691.8" font-family="Times,serif" font-style="italic" font-size="14.00">090.timezone</text>
<text text-anchor="middle" x="106" y="-3676.8" font-family="Times,serif" font-style="italic" font-size="14.00">&quot;Timezone&quot;</text>
</a>
</g>
</g>
<g id="clust24" class="cluster"><title>cluster_110.mouse</title>
<g id="a_clust24"><a xlink:title="Configure the Mouse">
<polygon fill="aliceblue" stroke="black" points="8,-3715 8,-4075 204,-4075 204,-3715 8,-3715"/>
<text text-anchor="middle" x="106" y="-4059.8" font-family="Times,serif" font-style="italic" font-size="14.00">110.mouse</text>
<text text-anchor="middle" x="106" y="-4044.8" font-family="Times,serif" font-style="italic" font-size="14.00">&quot;Mouse&quot;</text>
</a>
</g>
</g>
<g id="clust25" class="cluster"><title>cluster_120.networking</title>
<g id="a_clust25"><a xlink:title="Setup Networking interfaces, services, etc.">
<polygon fill="aliceblue" stroke="black" points="8,-4083 8,-4389 204,-4389 204,-4083 8,-4083"/>
<text text-anchor="middle" x="106" y="-4373.8" font-family="Times,serif" font-style="italic" font-size="14.00">120.networking</text>
<text text-anchor="middle" x="106" y="-4358.8" font-family="Times,serif" font-style="italic" font-size="14.00">&quot;Networking Management&quot;</text>
</a>
</g>
</g>
<g id="clust26" class="cluster"><title>cluster_130.security</title>
<g id="a_clust26"><a xlink:title="Set Security Parameters">
<polygon fill="aliceblue" stroke="black" points="8,-4397 8,-4541 204,-4541 204,-4397 8,-4397"/>
<text text-anchor="middle" x="106" y="-4525.8" font-family="Times,serif" font-style="italic" font-size="14.00">130.security</text>
<text text-anchor="middle" x="106" y="-4510.8" font-family="Times,serif" font-style="italic" font-size="14.00">&quot;Security&quot;</text>
</a>
</g>
</g>
<g id="clust27" class="cluster"><title>cluster_140.startup</title>
<g id="a_clust27"><a xlink:title="Set Startup Parameters">
<polygon fill="aliceblue" stroke="black" points="8,-4549 8,-4909 204,-4909 204,-4549 8,-4549"/>
<text text-anchor="middle" x="106" y="-4893.8" font-family="Times,serif" font-style="italic" font-size="14.00">140.startup</text>
<text text-anchor="middle" x="106" y="-4878.8" font-family="Times,serif" font-style="italic" font-size="14.00">&quot;Startup&quot;</text>
</a>
</g>
</g>
<g id="clust28" class="cluster"><title>cluster_150.ttys</title>
<g id="a_clust28"><a xlink:title="Configure Ttys">
<polygon fill="aliceblue" stroke="black" points="224,-80 224,-170 420,-170 420,-80 224,-80"/>
<text text-anchor="middle" x="322" y="-154.8" font-family="Times,serif" font-style="italic" font-size="14.00">150.ttys</text>
<text text-anchor="middle" x="322" y="-139.8" font-family="Times,serif" font-style="italic" font-size="14.00">&quot;Ttys&quot;</text>
</a>
</g>
</g>
<g id="clust29" class="cluster"><title>cluster_dot</title>
<g id="a_clust29"><a xlink:title="dot">
<polygon fill="honeydew" stroke="black" points="8,-4917 8,-4992 204,-4992 204,-4917 8,-4917"/>
<text text-anchor="middle" x="106" y="-4976.8" font-family="Times,serif" font-style="italic" font-size="14.00">dot</text>
</a>
</g>
</g>
<g id="clust30" class="cluster"><title>cluster_includes</title>
<g id="a_clust30"><a xlink:title="includes">
<polygon fill="honeydew" stroke="black" points="8,-5000 8,-5075 204,-5075 204,-5000 8,-5000"/>
<text text-anchor="middle" x="106" y="-5059.8" font-family="Times,serif" font-style="italic" font-size="14.00">includes</text>
</a>
</g>
</g>
<!-- bsdconfig -->
<g id="node1" class="node"><title>bsdconfig</title>
<ellipse fill="yellow" stroke="black" cx="106" cy="-106" rx="90" ry="90"/>
<text text-anchor="middle" x="106" y="-102.2" font-family="Times,serif" font-weight="bold" font-size="16.00">bsdconfig</text>
</g>
<!-- 150.ttys/ttys -->
<g id="node6" class="node"><title>150.ttys/ttys</title>
<polygon fill="lightblue" stroke="black" points="412,-124 232,-124 232,-88 412,-88 412,-124"/>
<text text-anchor="middle" x="322" y="-102.9" font-family="Times,serif" font-size="12.00">ttys</text>
</g>
<!-- bsdconfig&#45;&gt;150.ttys/ttys -->
<g id="edge1" class="edge"><title>bsdconfig&#45;&gt;150.ttys/ttys</title>
<path fill="none" stroke="blue" stroke-width="5" d="M196.206,-106C204.696,-106 213.34,-106 221.916,-106"/>
<polygon fill="blue" stroke="blue" stroke-width="5" points="221.939,-110.375 231.939,-106 221.939,-101.625 221.939,-110.375"/>
</g>
<!-- 020.docsinstall/docsinstall -->
<g id="node2" class="node"><title>020.docsinstall/docsinstall</title>
<polygon fill="lightblue" stroke="black" points="196,-279 16,-279 16,-243 196,-243 196,-279"/>
<text text-anchor="middle" x="106" y="-257.9" font-family="Times,serif" font-size="12.00">docsinstall</text>
</g>
<!-- 030.packages/packages -->
<g id="node3" class="node"><title>030.packages/packages</title>
<polygon fill="lightblue" stroke="black" points="196,-377 16,-377 16,-341 196,-341 196,-377"/>
<text text-anchor="middle" x="106" y="-355.9" font-family="Times,serif" font-size="12.00">packages</text>
</g>
<!-- 070.usermgmt/useradd -->
<g id="node4" class="node"><title>070.usermgmt/useradd</title>
<polygon fill="lightblue" stroke="black" points="412,-637 232,-637 232,-601 412,-601 412,-637"/>
<text text-anchor="middle" x="322" y="-615.9" font-family="Times,serif" font-size="12.00">useradd</text>
</g>
<!-- 070.usermgmt/useredit -->
<g id="node5" class="node"><title>070.usermgmt/useredit</title>
<polygon fill="lightblue" stroke="black" points="412,-691 232,-691 232,-655 412,-655 412,-691"/>
<text text-anchor="middle" x="322" y="-669.9" font-family="Times,serif" font-size="12.00">useredit</text>
</g>
<!-- 070.usermgmt/usermgmt -->
<g id="node7" class="node"><title>070.usermgmt/usermgmt</title>
<polygon fill="lightblue" stroke="black" points="196,-691 16,-691 16,-655 196,-655 196,-691"/>
<text text-anchor="middle" x="106" y="-669.9" font-family="Times,serif" font-size="12.00">usermgmt</text>
</g>
<!-- 070.usermgmt/usermgmt&#45;&gt;070.usermgmt/useradd -->
<g id="edge2" class="edge"><title>070.usermgmt/usermgmt&#45;&gt;070.usermgmt/useradd</title>
<path fill="none" stroke="blue" stroke-width="2" d="M178.556,-654.944C198.187,-649.99 219.613,-644.584 239.745,-639.504"/>
<polygon fill="blue" stroke="blue" stroke-width="2" points="240.671,-642.88 249.511,-637.039 238.959,-636.092 240.671,-642.88"/>
</g>
<!-- 070.usermgmt/usermgmt&#45;&gt;070.usermgmt/useredit -->
<g id="edge3" class="edge"><title>070.usermgmt/usermgmt&#45;&gt;070.usermgmt/useredit</title>
<path fill="none" stroke="blue" stroke-width="2" d="M196.206,-673C204.696,-673 213.34,-673 221.916,-673"/>
<polygon fill="blue" stroke="blue" stroke-width="2" points="221.939,-676.5 231.939,-673 221.939,-669.5 221.939,-676.5"/>
</g>
<!-- device.subr -->
<g id="node8" class="node"><title>device.subr</title>
<ellipse fill="white" stroke="black" cx="106" cy="-1278" rx="90" ry="18"/>
<text text-anchor="middle" x="106" y="-1274.9" font-family="Times,serif" font-size="12.00">device.subr</text>
</g>
<!-- dialog.subr -->
<g id="node9" class="node"><title>dialog.subr</title>
<ellipse fill="white" stroke="black" cx="106" cy="-1224" rx="90" ry="18"/>
<text text-anchor="middle" x="106" y="-1220.9" font-family="Times,serif" font-size="12.00">dialog.subr</text>
</g>
<!-- geom.subr -->
<g id="node10" class="node"><title>geom.subr</title>
<ellipse fill="white" stroke="black" cx="106" cy="-1170" rx="90" ry="18"/>
<text text-anchor="middle" x="106" y="-1166.9" font-family="Times,serif" font-size="12.00">geom.subr</text>
</g>
<!-- media/any.subr -->
<g id="node11" class="node"><title>media/any.subr</title>
<ellipse fill="white" stroke="black" cx="322" cy="-825" rx="90" ry="18"/>
<text text-anchor="middle" x="322" y="-821.9" font-family="Times,serif" font-size="12.00">any.subr</text>
</g>
<!-- media/cdrom.subr -->
<g id="node12" class="node"><title>media/cdrom.subr</title>
<ellipse fill="white" stroke="black" cx="106" cy="-1353" rx="90" ry="18"/>
<text text-anchor="middle" x="106" y="-1349.9" font-family="Times,serif" font-size="12.00">cdrom.subr</text>
</g>
<!-- media/common.subr -->
<g id="node13" class="node"><title>media/common.subr</title>
<ellipse fill="white" stroke="black" cx="106" cy="-1407" rx="90" ry="18"/>
<text text-anchor="middle" x="106" y="-1403.9" font-family="Times,serif" font-size="12.00">common.subr</text>
</g>
<!-- media/directory.subr -->
<g id="node14" class="node"><title>media/directory.subr</title>
<ellipse fill="white" stroke="black" cx="106" cy="-1461" rx="90" ry="18"/>
<text text-anchor="middle" x="106" y="-1457.9" font-family="Times,serif" font-size="12.00">directory.subr</text>
</g>
<!-- media/dos.subr -->
<g id="node15" class="node"><title>media/dos.subr</title>
<ellipse fill="white" stroke="black" cx="106" cy="-1515" rx="90" ry="18"/>
<text text-anchor="middle" x="106" y="-1511.9" font-family="Times,serif" font-size="12.00">dos.subr</text>
</g>
<!-- media/floppy.subr -->
<g id="node16" class="node"><title>media/floppy.subr</title>
<ellipse fill="white" stroke="black" cx="106" cy="-1569" rx="90" ry="18"/>
<text text-anchor="middle" x="106" y="-1565.9" font-family="Times,serif" font-size="12.00">floppy.subr</text>
</g>
<!-- media/ftp.subr -->
<g id="node17" class="node"><title>media/ftp.subr</title>
<ellipse fill="white" stroke="black" cx="106" cy="-1623" rx="90" ry="18"/>
<text text-anchor="middle" x="106" y="-1619.9" font-family="Times,serif" font-size="12.00">ftp.subr</text>
</g>
<!-- media/http.subr -->
<g id="node18" class="node"><title>media/http.subr</title>
<ellipse fill="white" stroke="black" cx="106" cy="-1677" rx="90" ry="18"/>
<text text-anchor="middle" x="106" y="-1673.9" font-family="Times,serif" font-size="12.00">http.subr</text>
</g>
<!-- media/httpproxy.subr -->
<g id="node19" class="node"><title>media/httpproxy.subr</title>
<ellipse fill="white" stroke="black" cx="106" cy="-1731" rx="90" ry="18"/>
<text text-anchor="middle" x="106" y="-1727.9" font-family="Times,serif" font-size="12.00">httpproxy.subr</text>
</g>
<!-- media/network.subr -->
<g id="node20" class="node"><title>media/network.subr</title>
<ellipse fill="white" stroke="black" cx="106" cy="-1785" rx="90" ry="18"/>
<text text-anchor="middle" x="106" y="-1781.9" font-family="Times,serif" font-size="12.00">network.subr</text>
</g>
<!-- media/nfs.subr -->
<g id="node21" class="node"><title>media/nfs.subr</title>
<ellipse fill="white" stroke="black" cx="106" cy="-1839" rx="90" ry="18"/>
<text text-anchor="middle" x="106" y="-1835.9" font-family="Times,serif" font-size="12.00">nfs.subr</text>
</g>
<!-- media/options.subr -->
<g id="node22" class="node"><title>media/options.subr</title>
<ellipse fill="white" stroke="black" cx="106" cy="-1893" rx="90" ry="18"/>
<text text-anchor="middle" x="106" y="-1889.9" font-family="Times,serif" font-size="12.00">options.subr</text>
</g>
<!-- media/tcpip.subr -->
<g id="node23" class="node"><title>media/tcpip.subr</title>
<ellipse fill="white" stroke="black" cx="322" cy="-954" rx="90" ry="18"/>
<text text-anchor="middle" x="322" y="-950.9" font-family="Times,serif" font-size="12.00">tcpip.subr</text>
</g>
<!-- media/ufs.subr -->
<g id="node24" class="node"><title>media/ufs.subr</title>
<ellipse fill="white" stroke="black" cx="322" cy="-900" rx="90" ry="18"/>
<text text-anchor="middle" x="322" y="-896.9" font-family="Times,serif" font-size="12.00">ufs.subr</text>
</g>
<!-- media/usb.subr -->
<g id="node25" class="node"><title>media/usb.subr</title>
<ellipse fill="white" stroke="black" cx="322" cy="-771" rx="90" ry="18"/>
<text text-anchor="middle" x="322" y="-767.9" font-family="Times,serif" font-size="12.00">usb.subr</text>
</g>
<!-- mustberoot.subr -->
<g id="node26" class="node"><title>mustberoot.subr</title>
<ellipse fill="white" stroke="black" cx="106" cy="-1116" rx="90" ry="18"/>
<text text-anchor="middle" x="106" y="-1112.9" font-family="Times,serif" font-size="12.00">mustberoot.subr</text>
</g>
<!-- networking/common.subr -->
<g id="node27" class="node"><title>networking/common.subr</title>
<ellipse fill="white" stroke="black" cx="106" cy="-2001" rx="90" ry="18"/>
<text text-anchor="middle" x="106" y="-1997.9" font-family="Times,serif" font-size="12.00">common.subr</text>
</g>
<!-- networking/device.subr -->
<g id="node28" class="node"><title>networking/device.subr</title>
<ellipse fill="white" stroke="black" cx="106" cy="-2076" rx="90" ry="18"/>
<text text-anchor="middle" x="106" y="-2072.9" font-family="Times,serif" font-size="12.00">device.subr</text>
</g>
<!-- networking/hostname.subr -->
<g id="node29" class="node"><title>networking/hostname.subr</title>
<ellipse fill="white" stroke="black" cx="106" cy="-2130" rx="90" ry="18"/>
<text text-anchor="middle" x="106" y="-2126.9" font-family="Times,serif" font-size="12.00">hostname.subr</text>
</g>
<!-- networking/ipaddr.subr -->
<g id="node30" class="node"><title>networking/ipaddr.subr</title>
<ellipse fill="white" stroke="black" cx="106" cy="-2184" rx="90" ry="18"/>
<text text-anchor="middle" x="106" y="-2180.9" font-family="Times,serif" font-size="12.00">ipaddr.subr</text>
</g>
<!-- networking/media.subr -->
<g id="node31" class="node"><title>networking/media.subr</title>
<ellipse fill="white" stroke="black" cx="106" cy="-2238" rx="90" ry="18"/>
<text text-anchor="middle" x="106" y="-2234.9" font-family="Times,serif" font-size="12.00">media.subr</text>
</g>
<!-- networking/netmask.subr -->
<g id="node32" class="node"><title>networking/netmask.subr</title>
<ellipse fill="white" stroke="black" cx="106" cy="-2292" rx="90" ry="18"/>
<text text-anchor="middle" x="106" y="-2288.9" font-family="Times,serif" font-size="12.00">netmask.subr</text>
</g>
<!-- networking/resolv.subr -->
<g id="node33" class="node"><title>networking/resolv.subr</title>
<ellipse fill="white" stroke="black" cx="106" cy="-2346" rx="90" ry="18"/>
<text text-anchor="middle" x="106" y="-2342.9" font-family="Times,serif" font-size="12.00">resolv.subr</text>
</g>
<!-- networking/routing.subr -->
<g id="node34" class="node"><title>networking/routing.subr</title>
<ellipse fill="white" stroke="black" cx="106" cy="-2400" rx="90" ry="18"/>
<text text-anchor="middle" x="106" y="-2396.9" font-family="Times,serif" font-size="12.00">routing.subr</text>
</g>
<!-- networking/services.subr -->
<g id="node35" class="node"><title>networking/services.subr</title>
<ellipse fill="white" stroke="black" cx="106" cy="-1947" rx="90" ry="18"/>
<text text-anchor="middle" x="106" y="-1943.9" font-family="Times,serif" font-size="12.00">services.subr</text>
</g>
<!-- packages/categories.subr -->
<g id="node36" class="node"><title>packages/categories.subr</title>
<ellipse fill="white" stroke="black" cx="106" cy="-2508" rx="90" ry="18"/>
<text text-anchor="middle" x="106" y="-2504.9" font-family="Times,serif" font-size="12.00">categories.subr</text>
</g>
<!-- packages/index.subr -->
<g id="node37" class="node"><title>packages/index.subr</title>
<ellipse fill="white" stroke="black" cx="106" cy="-2583" rx="90" ry="18"/>
<text text-anchor="middle" x="106" y="-2579.9" font-family="Times,serif" font-size="12.00">index.subr</text>
</g>
<!-- packages/musthavepkg.subr -->
<g id="node38" class="node"><title>packages/musthavepkg.subr</title>
<ellipse fill="white" stroke="black" cx="106" cy="-2637" rx="90" ry="18"/>
<text text-anchor="middle" x="106" y="-2633.9" font-family="Times,serif" font-size="12.00">musthavepkg.subr</text>
</g>
<!-- packages/packages.subr -->
<g id="node39" class="node"><title>packages/packages.subr</title>
<ellipse fill="white" stroke="black" cx="106" cy="-2454" rx="90" ry="18"/>
<text text-anchor="middle" x="106" y="-2450.9" font-family="Times,serif" font-size="12.00">packages.subr</text>
</g>
<!-- password/password.subr -->
<g id="node40" class="node"><title>password/password.subr</title>
<ellipse fill="white" stroke="black" cx="106" cy="-2691" rx="90" ry="18"/>
<text text-anchor="middle" x="106" y="-2687.9" font-family="Times,serif" font-size="12.00">password.subr</text>
</g>
<!-- startup/rcconf.subr -->
<g id="node41" class="node"><title>startup/rcconf.subr</title>
<ellipse fill="white" stroke="black" cx="106" cy="-2828" rx="90" ry="18"/>
<text text-anchor="middle" x="106" y="-2824.9" font-family="Times,serif" font-size="12.00">rcconf.subr</text>
</g>
<!-- startup/rcvar.subr -->
<g id="node42" class="node"><title>startup/rcvar.subr</title>
<ellipse fill="white" stroke="black" cx="106" cy="-2774" rx="90" ry="18"/>
<text text-anchor="middle" x="106" y="-2770.9" font-family="Times,serif" font-size="12.00">rcvar.subr</text>
</g>
<!-- strings.subr -->
<g id="node43" class="node"><title>strings.subr</title>
<ellipse fill="white" stroke="black" cx="106" cy="-1062" rx="90" ry="18"/>
<text text-anchor="middle" x="106" y="-1058.9" font-family="Times,serif" font-size="12.00">strings.subr</text>
</g>
<!-- struct.subr -->
<g id="node44" class="node"><title>struct.subr</title>
<ellipse fill="white" stroke="black" cx="106" cy="-1008" rx="90" ry="18"/>
<text text-anchor="middle" x="106" y="-1004.9" font-family="Times,serif" font-size="12.00">struct.subr</text>
</g>
<!-- sysrc.subr -->
<g id="node45" class="node"><title>sysrc.subr</title>
<ellipse fill="white" stroke="black" cx="106" cy="-954" rx="90" ry="18"/>
<text text-anchor="middle" x="106" y="-950.9" font-family="Times,serif" font-size="12.00">sysrc.subr</text>
</g>
<!-- timezone/continents.subr -->
<g id="node46" class="node"><title>timezone/continents.subr</title>
<ellipse fill="white" stroke="black" cx="106" cy="-2903" rx="90" ry="18"/>
<text text-anchor="middle" x="106" y="-2899.9" font-family="Times,serif" font-size="12.00">continents.subr</text>
</g>
<!-- timezone/countries.subr -->
<g id="node47" class="node"><title>timezone/countries.subr</title>
<ellipse fill="white" stroke="black" cx="106" cy="-2957" rx="90" ry="18"/>
<text text-anchor="middle" x="106" y="-2953.9" font-family="Times,serif" font-size="12.00">countries.subr</text>
</g>
<!-- timezone/iso3166.subr -->
<g id="node48" class="node"><title>timezone/iso3166.subr</title>
<ellipse fill="white" stroke="black" cx="106" cy="-3011" rx="90" ry="18"/>
<text text-anchor="middle" x="106" y="-3007.9" font-family="Times,serif" font-size="12.00">iso3166.subr</text>
</g>
<!-- timezone/menus.subr -->
<g id="node49" class="node"><title>timezone/menus.subr</title>
<ellipse fill="white" stroke="black" cx="106" cy="-3065" rx="90" ry="18"/>
<text text-anchor="middle" x="106" y="-3061.9" font-family="Times,serif" font-size="12.00">menus.subr</text>
</g>
<!-- timezone/zones.subr -->
<g id="node50" class="node"><title>timezone/zones.subr</title>
<ellipse fill="white" stroke="black" cx="106" cy="-3119" rx="90" ry="18"/>
<text text-anchor="middle" x="106" y="-3115.9" font-family="Times,serif" font-size="12.00">zones.subr</text>
</g>
<!-- usermgmt/group.subr -->
<g id="node51" class="node"><title>usermgmt/group.subr</title>
<ellipse fill="white" stroke="black" cx="106" cy="-3364" rx="90" ry="18"/>
<text text-anchor="middle" x="106" y="-3360.9" font-family="Times,serif" font-size="12.00">group.subr</text>
</g>
<!-- usermgmt/group_input.subr -->
<g id="node52" class="node"><title>usermgmt/group_input.subr</title>
<ellipse fill="white" stroke="black" cx="106" cy="-3310" rx="90" ry="18"/>
<text text-anchor="middle" x="106" y="-3306.9" font-family="Times,serif" font-size="12.00">group_input.subr</text>
</g>
<!-- usermgmt/user.subr -->
<g id="node53" class="node"><title>usermgmt/user.subr</title>
<ellipse fill="white" stroke="black" cx="106" cy="-3256" rx="90" ry="18"/>
<text text-anchor="middle" x="106" y="-3252.9" font-family="Times,serif" font-size="12.00">user.subr</text>
</g>
<!-- usermgmt/user_input.subr -->
<g id="node54" class="node"><title>usermgmt/user_input.subr</title>
<ellipse fill="white" stroke="black" cx="106" cy="-3202" rx="90" ry="18"/>
<text text-anchor="middle" x="106" y="-3198.9" font-family="Times,serif" font-size="12.00">user_input.subr</text>
</g>
<!-- variable.subr -->
<g id="node55" class="node"><title>variable.subr</title>
<ellipse fill="white" stroke="black" cx="106" cy="-900" rx="90" ry="18"/>
<text text-anchor="middle" x="106" y="-896.9" font-family="Times,serif" font-size="12.00">variable.subr</text>
</g>
<!-- variable.subr&#45;&gt;media/tcpip.subr -->
<g id="edge4" class="edge"><title>variable.subr&#45;&gt;media/tcpip.subr</title>
<path fill="none" stroke="grey" stroke-dasharray="5,2" d="M162.667,-914.047C191.04,-921.206 225.723,-929.958 255.388,-937.444"/>
<polygon fill="grey" stroke="grey" points="254.688,-940.877 265.24,-939.93 256.4,-934.089 254.688,-940.877"/>
</g>
<!-- variable.subr&#45;&gt;media/ufs.subr -->
<g id="edge5" class="edge"><title>variable.subr&#45;&gt;media/ufs.subr</title>
<path fill="none" stroke="grey" stroke-dasharray="5,2" d="M196.206,-900C204.696,-900 213.34,-900 221.916,-900"/>
<polygon fill="grey" stroke="grey" points="221.939,-903.5 231.939,-900 221.939,-896.5 221.939,-903.5"/>
</g>
<!-- variable.subr&#45;&gt;media/usb.subr -->
<g id="edge6" class="edge"><title>variable.subr&#45;&gt;media/usb.subr</title>
<path fill="none" stroke="grey" stroke-dasharray="5,2" d="M122.617,-882.155C143.505,-859.371 182.722,-820.243 224,-798 231.911,-793.737 240.556,-790.098 249.321,-787.003"/>
<polygon fill="grey" stroke="grey" points="250.453,-790.315 258.851,-783.855 248.257,-783.669 250.453,-790.315"/>
</g>
<!-- 040.password/password -->
<g id="node56" class="node"><title>040.password/password</title>
<ellipse fill="white" stroke="black" cx="106" cy="-3447" rx="90" ry="18"/>
<text text-anchor="middle" x="106" y="-3443.9" font-family="Times,serif" font-size="12.00">password</text>
</g>
<!-- 050.diskmgmt/diskmgmt -->
<g id="node57" class="node"><title>050.diskmgmt/diskmgmt</title>
<ellipse fill="white" stroke="black" cx="106" cy="-3545" rx="90" ry="18"/>
<text text-anchor="middle" x="106" y="-3541.9" font-family="Times,serif" font-size="12.00">diskmgmt</text>
</g>
<!-- 070.usermgmt/groupadd -->
<g id="node58" class="node"><title>070.usermgmt/groupadd</title>
<ellipse fill="white" stroke="black" cx="106" cy="-619" rx="90" ry="18"/>
<text text-anchor="middle" x="106" y="-615.9" font-family="Times,serif" font-size="12.00">groupadd</text>
</g>
<!-- 070.usermgmt/groupdel -->
<g id="node59" class="node"><title>070.usermgmt/groupdel</title>
<ellipse fill="white" stroke="black" cx="106" cy="-565" rx="90" ry="18"/>
<text text-anchor="middle" x="106" y="-561.9" font-family="Times,serif" font-size="12.00">groupdel</text>
</g>
<!-- 070.usermgmt/groupedit -->
<g id="node60" class="node"><title>070.usermgmt/groupedit</title>
<ellipse fill="white" stroke="black" cx="106" cy="-511" rx="90" ry="18"/>
<text text-anchor="middle" x="106" y="-507.9" font-family="Times,serif" font-size="12.00">groupedit</text>
</g>
<!-- 070.usermgmt/userdel -->
<g id="node61" class="node"><title>070.usermgmt/userdel</title>
<ellipse fill="white" stroke="black" cx="106" cy="-457" rx="90" ry="18"/>
<text text-anchor="middle" x="106" y="-453.9" font-family="Times,serif" font-size="12.00">userdel</text>
</g>
<!-- 090.timezone/timezone -->
<g id="node62" class="node"><title>090.timezone/timezone</title>
<ellipse fill="white" stroke="black" cx="106" cy="-3643" rx="90" ry="18"/>
<text text-anchor="middle" x="106" y="-3639.9" font-family="Times,serif" font-size="12.00">timezone</text>
</g>
<!-- 110.mouse/disable -->
<g id="node63" class="node"><title>110.mouse/disable</title>
<ellipse fill="white" stroke="black" cx="106" cy="-4011" rx="90" ry="18"/>
<text text-anchor="middle" x="106" y="-4007.9" font-family="Times,serif" font-size="12.00">disable</text>
</g>
<!-- 110.mouse/enable -->
<g id="node64" class="node"><title>110.mouse/enable</title>
<ellipse fill="white" stroke="black" cx="106" cy="-3957" rx="90" ry="18"/>
<text text-anchor="middle" x="106" y="-3953.9" font-family="Times,serif" font-size="12.00">enable</text>
</g>
<!-- 110.mouse/flags -->
<g id="node65" class="node"><title>110.mouse/flags</title>
<ellipse fill="white" stroke="black" cx="106" cy="-3903" rx="90" ry="18"/>
<text text-anchor="middle" x="106" y="-3899.9" font-family="Times,serif" font-size="12.00">flags</text>
</g>
<!-- 110.mouse/mouse -->
<g id="node66" class="node"><title>110.mouse/mouse</title>
<ellipse fill="white" stroke="black" cx="106" cy="-3849" rx="90" ry="18"/>
<text text-anchor="middle" x="106" y="-3845.9" font-family="Times,serif" font-size="12.00">mouse</text>
</g>
<!-- 110.mouse/port -->
<g id="node67" class="node"><title>110.mouse/port</title>
<ellipse fill="white" stroke="black" cx="106" cy="-3795" rx="90" ry="18"/>
<text text-anchor="middle" x="106" y="-3791.9" font-family="Times,serif" font-size="12.00">port</text>
</g>
<!-- 110.mouse/type -->
<g id="node68" class="node"><title>110.mouse/type</title>
<ellipse fill="white" stroke="black" cx="106" cy="-3741" rx="90" ry="18"/>
<text text-anchor="middle" x="106" y="-3737.9" font-family="Times,serif" font-size="12.00">type</text>
</g>
<!-- 120.networking/defaultrouter -->
<g id="node69" class="node"><title>120.networking/defaultrouter</title>
<ellipse fill="white" stroke="black" cx="106" cy="-4325" rx="90" ry="18"/>
<text text-anchor="middle" x="106" y="-4321.9" font-family="Times,serif" font-size="12.00">defaultrouter</text>
</g>
<!-- 120.networking/devices -->
<g id="node70" class="node"><title>120.networking/devices</title>
<ellipse fill="white" stroke="black" cx="106" cy="-4271" rx="90" ry="18"/>
<text text-anchor="middle" x="106" y="-4267.9" font-family="Times,serif" font-size="12.00">devices</text>
</g>
<!-- 120.networking/hostname -->
<g id="node71" class="node"><title>120.networking/hostname</title>
<ellipse fill="white" stroke="black" cx="106" cy="-4217" rx="90" ry="18"/>
<text text-anchor="middle" x="106" y="-4213.9" font-family="Times,serif" font-size="12.00">hostname</text>
</g>
<!-- 120.networking/nameservers -->
<g id="node72" class="node"><title>120.networking/nameservers</title>
<ellipse fill="white" stroke="black" cx="106" cy="-4163" rx="90" ry="18"/>
<text text-anchor="middle" x="106" y="-4159.9" font-family="Times,serif" font-size="12.00">nameservers</text>
</g>
<!-- 120.networking/networking -->
<g id="node73" class="node"><title>120.networking/networking</title>
<ellipse fill="white" stroke="black" cx="106" cy="-4109" rx="90" ry="18"/>
<text text-anchor="middle" x="106" y="-4105.9" font-family="Times,serif" font-size="12.00">networking</text>
</g>
<!-- 130.security/kern_securelevel -->
<g id="node74" class="node"><title>130.security/kern_securelevel</title>
<ellipse fill="white" stroke="black" cx="106" cy="-4477" rx="90" ry="18"/>
<text text-anchor="middle" x="106" y="-4473.9" font-family="Times,serif" font-size="12.00">kern_securelevel</text>
</g>
<!-- 130.security/security -->
<g id="node75" class="node"><title>130.security/security</title>
<ellipse fill="white" stroke="black" cx="106" cy="-4423" rx="90" ry="18"/>
<text text-anchor="middle" x="106" y="-4419.9" font-family="Times,serif" font-size="12.00">security</text>
</g>
<!-- 140.startup/misc -->
<g id="node76" class="node"><title>140.startup/misc</title>
<ellipse fill="white" stroke="black" cx="106" cy="-4845" rx="90" ry="18"/>
<text text-anchor="middle" x="106" y="-4841.9" font-family="Times,serif" font-size="12.00">misc</text>
</g>
<!-- 140.startup/rcadd -->
<g id="node77" class="node"><title>140.startup/rcadd</title>
<ellipse fill="white" stroke="black" cx="106" cy="-4791" rx="90" ry="18"/>
<text text-anchor="middle" x="106" y="-4787.9" font-family="Times,serif" font-size="12.00">rcadd</text>
</g>
<!-- 140.startup/rcconf -->
<g id="node78" class="node"><title>140.startup/rcconf</title>
<ellipse fill="white" stroke="black" cx="106" cy="-4737" rx="90" ry="18"/>
<text text-anchor="middle" x="106" y="-4733.9" font-family="Times,serif" font-size="12.00">rcconf</text>
</g>
<!-- 140.startup/rcdelete -->
<g id="node79" class="node"><title>140.startup/rcdelete</title>
<ellipse fill="white" stroke="black" cx="106" cy="-4683" rx="90" ry="18"/>
<text text-anchor="middle" x="106" y="-4679.9" font-family="Times,serif" font-size="12.00">rcdelete</text>
</g>
<!-- 140.startup/rcvar -->
<g id="node80" class="node"><title>140.startup/rcvar</title>
<ellipse fill="white" stroke="black" cx="106" cy="-4629" rx="90" ry="18"/>
<text text-anchor="middle" x="106" y="-4625.9" font-family="Times,serif" font-size="12.00">rcvar</text>
</g>
<!-- 140.startup/startup -->
<g id="node81" class="node"><title>140.startup/startup</title>
<ellipse fill="white" stroke="black" cx="106" cy="-4575" rx="90" ry="18"/>
<text text-anchor="middle" x="106" y="-4571.9" font-family="Times,serif" font-size="12.00">startup</text>
</g>
<!-- dot/dot -->
<g id="node82" class="node"><title>dot/dot</title>
<ellipse fill="white" stroke="black" cx="106" cy="-4943" rx="90" ry="18"/>
<text text-anchor="middle" x="106" y="-4939.9" font-family="Times,serif" font-size="12.00">dot</text>
</g>
<!-- includes/includes -->
<g id="node83" class="node"><title>includes/includes</title>
<ellipse fill="white" stroke="black" cx="106" cy="-5026" rx="90" ry="18"/>
<text text-anchor="middle" x="106" y="-5022.9" font-family="Times,serif" font-size="12.00">includes</text>
</g>
</g>
</svg>
