<?xml version="1.0" encoding="UTF-8" standalone="no"?>
<!DOCTYPE svg PUBLIC "-//W3C//DTD SVG 1.1//EN"
 "http://www.w3.org/Graphics/SVG/1.1/DTD/svg11.dtd">
<!-- Generated by graphviz version 2.36.0 (20140111.2315)
 -->
<!-- Pages: 1 -->
<svg width="420pt" height="176pt"
 viewBox="0.00 0.00 420.00 176.00" xmlns="http://www.w3.org/2000/svg" xmlns:xlink="http://www.w3.org/1999/xlink">
<g id="graph0" class="graph" transform="scale(1 1) rotate(0) translate(4 172)">
<polygon fill="white" stroke="none" points="-4,4 -4,-172 416,-172 416,4 -4,4"/>
<text text-anchor="middle" x="206" y="-152.8" font-family="Times,serif" font-style="italic" font-size="14.00">CBSD command</text>
<g id="clust1" class="cluster"><title>cluster_cbsd_includes</title>
<polygon fill="lightyellow" stroke="black" points="8,-8 8,-137 204,-137 204,-8 8,-8"/>
<text text-anchor="middle" x="106" y="-121.8" font-family="Times,serif" font-style="italic" font-size="14.00">CBSD tools subroutines</text>
</g>
<!-- jail2iso -->
<g id="node1" class="node"><title>jail2iso</title>
<ellipse fill="none" stroke="black" cx="106" cy="-34" rx="90" ry="18"/>
<text text-anchor="middle" x="106" y="-30.9" font-family="Times,serif" font-size="12.00">jail2iso</text>
</g>
<!-- inventory.subr -->
<g id="node3" class="node"><title>inventory.subr</title>
<ellipse fill="white" stroke="black" cx="322" cy="-88" rx="90" ry="18"/>
<text text-anchor="middle" x="322" y="-84.9" font-family="Times,serif" font-size="12.00">inventory.subr</text>
</g>
<!-- jail2iso&#45;&gt;inventory.subr -->
<g id="edge1" class="edge"><title>jail2iso&#45;&gt;inventory.subr</title>
<path fill="none" stroke="grey" stroke-dasharray="5,2" d="M162.667,-48.0469C191.04,-55.2063 225.723,-63.9581 255.388,-71.4438"/>
<polygon fill="grey" stroke="grey" points="254.688,-74.8766 265.24,-73.9297 256.4,-68.0894 254.688,-74.8766"/>
</g>
<!-- cbsd.conf -->
<g id="node4" class="node"><title>cbsd.conf</title>
<ellipse fill="white" stroke="black" cx="322" cy="-34" rx="90" ry="18"/>
<text text-anchor="middle" x="322" y="-30.9" font-family="Times,serif" font-size="12.00">cbsd.conf</text>
</g>
<!-- jail2iso&#45;&gt;cbsd.conf -->
<g id="edge2" class="edge"><title>jail2iso&#45;&gt;cbsd.conf</title>
<path fill="none" stroke="grey" stroke-dasharray="5,2" d="M196.206,-34C204.696,-34 213.34,-34 221.916,-34"/>
<polygon fill="grey" stroke="grey" points="221.939,-37.5001 231.939,-34 221.939,-30.5001 221.939,-37.5001"/>
</g>
<!-- geli -->
<g id="node2" class="node"><title>geli</title>
<ellipse fill="none" stroke="black" cx="106" cy="-88" rx="90" ry="18"/>
<text text-anchor="middle" x="106" y="-84.9" font-family="Times,serif" font-size="12.00">geli</text>
</g>
<!-- geli&#45;&gt;inventory.subr -->
<g id="edge3" class="edge"><title>geli&#45;&gt;inventory.subr</title>
<path fill="none" stroke="grey" stroke-dasharray="5,2" d="M196.206,-88C204.696,-88 213.34,-88 221.916,-88"/>
<polygon fill="grey" stroke="grey" points="221.939,-91.5001 231.939,-88 221.939,-84.5001 221.939,-91.5001"/>
</g>
</g>
</svg>
